HIERARCHY
ROOT Hips
{
	OFFSET 0.000000 0.000000 0.000000
	CHANNELS 6 Xposition Yposition Zposition Zrotation Yrotation Xrotation 
	JOINT LHipJoint
	{
		OFFSET 0.000000 0.000000 0.000000
		CHANNELS 3 Zrotation Yrotation Xrotation
		JOINT LeftUpLeg
		{
			OFFSET 1.363060 -1.794630 0.839290
			CHANNELS 3 Zrotation Yrotation Xrotation
			JOINT LeftLeg
			{
				OFFSET 2.448110 -6.726130 0.000000
				CHANNELS 3 Zrotation Yrotation Xrotation
				JOINT LeftFoot
				{
					OFFSET 2.562200 -7.039590 0.000000
					CHANNELS 3 Zrotation Yrotation Xrotation
					JOINT LeftToeBase
					{
						OFFSET 0.157640 -0.433110 2.322550
						CHANNELS 3 Zrotation Yrotation Xrotation
						End Site
						{
							OFFSET 0.000000 0.000000 0.000000
						}
					}
				}
			}
		}
	}
	JOINT RHipJoint
	{
		OFFSET 0.000000 0.000000 0.000000
		CHANNELS 3 Zrotation Yrotation Xrotation
		JOINT RightUpLeg
		{
			OFFSET -1.305520 -1.794630 0.839290
			CHANNELS 3 Zrotation Yrotation Xrotation
			JOINT RightLeg
			{
				OFFSET -2.542530 -6.985550 0.000000
				CHANNELS 3 Zrotation Yrotation Xrotation
				JOINT RightFoot
				{
					OFFSET -2.568260 -7.056230 0.000000
					CHANNELS 3 Zrotation Yrotation Xrotation
					JOINT RightToeBase
					{
						OFFSET -0.164730 -0.452590 2.363150
						CHANNELS 3 Zrotation Yrotation Xrotation
						End Site
						{
							OFFSET 0.000000 0.000000 0.000000
						}
					}
				}
			}
		}
	}
	JOINT LowerBack
	{
		OFFSET 0.000000 0.000000 0.000000
		CHANNELS 3 Zrotation Yrotation Xrotation
		JOINT Spine
		{
			OFFSET 0.028270 2.035590 -0.193380
			CHANNELS 3 Zrotation Yrotation Xrotation
			JOINT Spine1
			{
				OFFSET 0.056720 2.048850 -0.042750
				CHANNELS 3 Zrotation Yrotation Xrotation
				JOINT Neck
				{
					OFFSET 0.000000 0.000000 0.000000
					CHANNELS 3 Zrotation Yrotation Xrotation
					JOINT Neck1
					{
						OFFSET -0.054170 1.746240 0.172020
						CHANNELS 3 Zrotation Yrotation Xrotation
						JOINT Head
						{
							OFFSET 0.104070 1.761360 -0.123970
							CHANNELS 3 Zrotation Yrotation Xrotation
							End Site
							{
								OFFSET 0.000000 0.000000 0.000000
							}
						}
					}
				}
				JOINT LeftShoulder
				{
					OFFSET 0.000000 0.000000 0.000000
					CHANNELS 3 Zrotation Yrotation Xrotation
					JOINT LeftArm
					{
						OFFSET 3.362410 1.200890 -0.311210
						CHANNELS 3 Zrotation Yrotation Xrotation
						JOINT LeftForeArm
						{
							OFFSET 4.983000 -0.000000 -0.000000
							CHANNELS 3 Zrotation Yrotation Xrotation
							JOINT LeftHand
							{
								OFFSET 3.483560 -0.000000 -0.000000
								CHANNELS 3 Zrotation Yrotation Xrotation
								JOINT LeftFingerBase
								{
									OFFSET 0.000000 0.000000 0.000000
									CHANNELS 3 Zrotation Yrotation Xrotation
									JOINT LeftHandIndex1
									{
										OFFSET 0.715260 -0.000000 -0.000000
										CHANNELS 3 Zrotation Yrotation Xrotation
										End Site
										{
											OFFSET 0.000000 0.000000 0.000000
										}
									}
								}
								JOINT LThumb
								{
									OFFSET 0.000000 0.000000 0.000000
									CHANNELS 3 Zrotation Yrotation Xrotation
									End Site
									{
										OFFSET 0.000000 0.000000 0.000000
									}
								}
							}
						}
					}
				}
				JOINT RightShoulder
				{
					OFFSET 0.000000 0.000000 0.000000
					CHANNELS 3 Zrotation Yrotation Xrotation
					JOINT RightArm
					{
						OFFSET -3.136600 1.374050 -0.404650
						CHANNELS 3 Zrotation Yrotation Xrotation
						JOINT RightForeArm
						{
							OFFSET -5.241900 -0.000000 -0.000000
							CHANNELS 3 Zrotation Yrotation Xrotation
							JOINT RightHand
							{
								OFFSET -3.444170 -0.000000 -0.000000
								CHANNELS 3 Zrotation Yrotation Xrotation
								JOINT RightFingerBase
								{
									OFFSET 0.000000 0.000000 0.000000
									CHANNELS 3 Zrotation Yrotation Xrotation
									JOINT RightHandIndex1
									{
										OFFSET -0.622530 -0.000000 -0.000000
										CHANNELS 3 Zrotation Yrotation Xrotation
										End Site
										{
											OFFSET 0.000000 0.000000 0.000000
										}
									}
								}
								JOINT RThumb
								{
									OFFSET 0.000000 0.000000 0.000000
									CHANNELS 3 Zrotation Yrotation Xrotation
									End Site
									{
										OFFSET 0.000000 0.000000 0.000000
									}
								}
							}
						}
					}
				}
			}
		}
	}
}
MOTION
Frames: 4
Frame Time: 0.008333
4.669031 17.395630 0.650838 -178.511966 -83.673355 -167.146820 -10.262894 0.303159 1.238375 -9.854761 1.865222 -38.735940 -0.929766 1.542592 37.114166 3.021837 16.462007 -6.680065 0.763699 0.000000 -27.979600 8.036735 -1.577300 2.670920 12.608594 5.365431 -9.456957 3.450237 1.674313 1.309336 0.157424 3.076393 -6.753062 -0.023600 0.000000 -15.222800 1.240209 0.152130 -4.052242 -0.705913 -0.164410 -4.024203 -6.839900 -0.315706 -0.613442 9.095983 -1.574377 -5.189245 -4.327094 -0.356121 0.640719 0.000000 0.000000 0.000000 -6.209279 6.182672 2.609614 -70.073993 6.866645 9.344271 -3.308771 -15.704838 -0.003050 2.530760 3.752949 0.084994 -0.055540 -0.009033 -0.000000 0.000000 0.000000 0.000000 0.000000 0.000000 0.000000 17.610674 3.197524 0.626072 73.005797 22.767265 17.561097 2.523866 31.931427 0.007060 -1.227138 8.212347 -0.094166 0.066621 -0.203065 0.000000 0.000000 0.000000 0.000000 0.000000 0.000000 0.000000 
4.493102 17.377201 0.630666 -178.118420 -83.484676 -167.501841 -10.156600 0.206330 1.384129 -9.847446 1.739197 -39.164679 -1.064562 1.332963 34.283571 2.984275 16.099855 -6.259190 0.918100 -0.000000 -28.241600 8.055906 -1.594829 2.562208 12.654681 5.065497 -8.347769 3.478173 1.761161 0.531111 0.214608 3.504621 -6.918546 -0.006500 0.000000 -15.461400 1.149641 0.328669 -4.062443 -0.729664 0.020125 -4.040292 -6.798048 -0.129262 -0.654089 8.977081 -1.401035 -5.143688 -4.284094 -0.353697 0.653490 0.000000 0.000000 0.000000 -6.361734 6.590394 2.628802 -69.839488 8.009392 9.909044 -3.326212 -16.274841 -0.003075 2.143229 3.891456 0.075075 -0.056375 -0.016118 -0.000000 0.000000 0.000000 0.000000 0.000000 0.000000 0.000000 17.292610 3.605855 0.576031 72.837619 24.024725 18.852899 2.461239 33.288038 0.006982 -1.175551 8.290432 -0.091236 0.065209 -0.213275 0.000000 0.000000 0.000000 0.000000 0.000000 0.000000 0.000000 
4.316503 17.354029 0.612075 -177.426244 -83.311421 -168.151023 -10.060155 0.118867 1.531828 -9.809539 1.656659 -39.565580 -1.202067 1.117156 31.395643 2.919569 15.634534 -5.732880 1.088400 0.000000 -28.595700 8.068978 -1.610463 2.454501 12.734751 4.793905 -7.270820 3.506310 1.841874 -0.156547 0.263746 3.910863 -7.139301 0.005900 -0.000000 -15.761300 1.106562 0.494028 -4.072678 -0.743232 0.189764 -4.054197 -6.754321 0.042983 -0.686702 8.850103 -1.235566 -5.105821 -4.238839 -0.351012 0.664397 0.000000 0.000000 0.000000 -6.524463 7.018795 2.644601 -69.577592 9.130336 10.527164 -3.335311 -16.887863 -0.003083 1.830310 3.965451 0.065756 -0.056898 -0.023213 -0.000000 0.000000 0.000000 0.000000 0.000000 0.000000 0.000000 16.957390 3.992737 0.526899 72.622034 25.322938 20.092503 2.402010 34.585877 0.006933 -1.120507 8.363642 -0.087908 0.063856 -0.223159 0.000000 0.000000 0.000000 0.000000 0.000000 0.000000 0.000000 
4.139424 17.326282 0.595175 -176.466645 -83.153182 -169.075719 -9.973789 0.038620 1.676214 -9.751470 1.627467 -39.930131 -1.345994 0.895089 28.469444 2.824461 15.047373 -5.152824 1.251600 -0.000000 -29.023100 8.075976 -1.624721 2.343124 12.850449 4.540151 -6.218186 3.535061 1.914423 -0.741485 0.304847 4.295668 -7.419017 0.012800 0.000001 -16.113100 1.110606 0.649306 -4.072784 -0.746559 0.346127 -4.065400 -6.707897 0.202526 -0.717325 8.710224 -1.052756 -5.068477 -4.190862 -0.348073 0.675258 0.000000 0.000000 0.000000 -6.697001 7.463816 2.659766 -69.294885 10.220751 11.177764 -3.336707 -17.515325 -0.003042 1.599790 3.974475 0.057938 -0.057117 -0.030183 -0.000000 0.000000 0.000000 0.000000 0.000000 0.000000 0.000000 16.592048 4.384978 0.477657 72.368215 26.623102 21.216092 2.344637 35.837016 0.006939 -1.040439 8.432027 -0.082485 0.062130 -0.232765 0.000000 0.000000 0.000000 0.000000 0.000000 0.000000 0.000000 
